<svg aria-hidden="true" style="position:absolute;width:0;height:0;overflow:hidden" xmlns="http://www.w3.org/2000/svg">
  <defs>
    <symbol id="icon-email" viewBox="0 0 30 32">
      <path d="M25.263 5.998H5.052c-1.389 0-2.514 1.114-2.514 2.475l-.013 14.848c0 1.361 1.137 2.475 2.526 2.475h20.211c1.389 0 2.526-1.114 2.526-2.475V8.473c0-1.361-1.137-2.475-2.526-2.475zm-.505 5.259-8.931 5.469a1.302 1.302 0 0 1-1.339 0l-8.931-5.469a1.053 1.053 0 0 1-.505-.891c0-.829.922-1.324 1.642-.891l8.463 5.184 8.463-5.184c.72-.433 1.642.062 1.642.891 0 .359-.189.693-.505.891z"/>
    </symbol>
    <symbol id="icon-phone" viewBox="0 0 32 32">
      <path d="m24.882 19.395-3.268-.366a2.596 2.596 0 0 0-2.11.718l-2.367 2.319c-3.641-1.815-6.626-4.726-8.478-8.305l2.38-2.331a2.479 2.479 0 0 0 .733-2.067l-.373-3.176c-.154-1.273-1.248-2.231-2.56-2.231H6.613c-1.454 0-2.663 1.185-2.573 2.609.682 10.762 9.469 19.357 20.443 20.025 1.454.088 2.663-1.097 2.663-2.521v-2.18c.013-1.273-.965-2.344-2.264-2.495z"/>
    </symbol>
    <symbol id="icon-person" viewBox="0 0 30 32">
      <path d="M15.158 15.532c2.792 0 5.053-2.215 5.053-4.949s-2.261-4.949-5.053-4.949-5.053 2.215-5.053 4.949 2.261 4.949 5.053 4.949zm0 2.475c-3.373 0-10.105 1.658-10.105 4.949v1.237c0 .681.568 1.237 1.263 1.237H24c.695 0 1.263-.557 1.263-1.237v-1.237c0-3.291-6.733-4.949-10.105-4.949z"/>
    </symbol>
    <symbol id="icon-check" viewBox="0 0 42 32">
      <path d="M6.263 15.205l-0.22-0.21-3.307 3.132 11.651 11.114 24.477-23.351-3.285-3.134-21.192 20.197-8.124-7.75z"></path>
    </symbol>
  </defs>
</svg>
